<svg width="195" height="74" viewBox="0 0 195 74" fill="none" xmlns="http://www.w3.org/2000/svg">
<path d="M6.34756 13.1742C6.52296 12.9988 6.76415 12.8782 7.07111 12.8124C7.4 12.7467 7.70696 12.6919 7.992 12.648C8.62785 12.6261 9.0883 12.7576 9.37333 13.0427C9.6803 13.3277 9.88859 13.7004 9.99822 14.1609C10.1079 14.5994 10.1627 15.0818 10.1627 15.608C10.1846 16.1342 10.2284 16.6056 10.2942 17.0222C11.1274 17.1757 11.9277 17.2853 12.6951 17.3511C13.4844 17.395 14.2847 17.3292 15.096 17.1538C15.4468 16.1452 15.5784 15.1585 15.4907 14.1938C15.403 13.229 15.1508 12.341 14.7342 11.5298C14.3176 10.6966 13.7585 9.96207 13.0569 9.32622C12.3553 8.69037 11.5659 8.18607 10.6889 7.81333C9.83378 7.41866 8.91289 7.18844 7.92622 7.12267C6.93956 7.05689 5.94193 7.18844 4.93333 7.51733C4.62637 7.60504 4.33037 7.71466 4.04533 7.84622C3.7603 7.95585 3.49719 8.09837 3.256 8.27378C2.83941 8.64652 2.47763 9.07407 2.17067 9.55644C1.88563 10.0388 1.64444 10.565 1.44711 11.1351C1.31556 11.464 1.20593 11.8258 1.11822 12.2204C1.05244 12.5932 1.04148 12.9659 1.08533 13.3387C1.06341 15.1147 1.04148 16.6824 1.01956 18.0418C1.01956 19.3793 1.01956 20.5852 1.01956 21.6596C1.04148 22.712 1.06341 23.6658 1.08533 24.5209C1.10726 25.376 1.14015 26.1982 1.184 26.9876C1.2717 27.9084 1.55674 28.6759 2.03911 29.2898C2.54341 29.9037 3.15733 30.3861 3.88089 30.7369C4.60444 31.0658 5.38282 31.2741 6.216 31.3618C7.04919 31.4714 7.86044 31.4714 8.64978 31.3618C9.8557 31.3399 10.9301 31.0439 11.8729 30.4738C12.8376 29.8818 13.616 29.1363 14.208 28.2373C14.8 27.3384 15.1837 26.3298 15.3591 25.2116C15.5345 24.0714 15.4359 22.9313 15.0631 21.7911C14.7561 21.7034 14.4053 21.6486 14.0107 21.6267C13.6379 21.6047 13.2542 21.5938 12.8596 21.5938C12.4649 21.5938 12.0702 21.6047 11.6756 21.6267C11.3028 21.6486 10.963 21.6376 10.656 21.5938C10.5464 22.1419 10.5025 22.701 10.5244 23.2711C10.5683 23.8193 10.4696 24.3455 10.2284 24.8498C10.0092 25.2883 9.6803 25.6062 9.24178 25.8036C8.82519 25.979 8.3757 26.0447 7.89333 26.0009C7.25748 25.8255 6.79704 25.4418 6.512 24.8498C6.24889 24.2359 6.08444 23.611 6.01867 22.9751C5.95289 22.2077 5.92 21.3087 5.92 20.2782C5.92 19.2258 5.93096 18.2172 5.95289 17.2524C5.97482 16.2877 5.99674 15.4545 6.01867 14.7529C6.06252 14.0513 6.10637 13.6676 6.15022 13.6018C6.17215 13.5579 6.19407 13.4921 6.216 13.4044C6.25985 13.2948 6.3037 13.2181 6.34756 13.1742ZM17.539 16.0027C17.4733 16.2439 17.3746 16.5727 17.243 16.9893C17.1115 17.384 17.0347 17.7019 17.0128 17.9431C16.947 18.3597 16.9032 18.7653 16.8813 19.16C16.8593 19.5327 16.8484 19.9164 16.8484 20.3111C16.9141 21.0347 16.9251 21.835 16.8813 22.712C16.8593 23.589 16.8703 24.4661 16.9141 25.3431C16.958 26.1982 17.0895 27.0204 17.3088 27.8098C17.5281 28.5991 17.9337 29.2569 18.5257 29.7831C19.2931 30.5505 20.2359 31.0329 21.3541 31.2302C21.9681 31.2302 22.6478 31.2521 23.3933 31.296C24.1387 31.3618 24.8623 31.3618 25.5639 31.296C26.2655 31.2521 26.9124 31.1206 27.5044 30.9013C28.1183 30.6821 28.6116 30.3093 28.9844 29.7831C29.2036 29.5639 29.3681 29.1582 29.4777 28.5662C29.6093 27.9742 29.7079 27.3055 29.7737 26.56C29.8614 25.8145 29.9162 25.0361 29.9381 24.2249C29.982 23.4136 30.0149 22.6901 30.0368 22.0542C30.0149 21.3307 29.993 20.629 29.971 19.9493C29.9491 19.2477 29.8943 18.6119 29.8066 18.0418C29.7189 17.4498 29.5873 16.9345 29.4119 16.496C29.2365 16.0575 28.9953 15.7396 28.6884 15.5422C28.2279 15.1037 27.6798 14.7748 27.0439 14.5556C26.4081 14.3144 25.7393 14.1719 25.0377 14.128C24.5773 14.0841 24.1387 14.0841 23.7221 14.128C23.3275 14.1499 22.9109 14.139 22.4724 14.0951C21.9461 14.0951 21.4199 14.128 20.8937 14.1938C20.3894 14.2596 19.907 14.3801 19.4466 14.5556C19.0081 14.709 18.6134 14.9064 18.2626 15.1476C17.9337 15.3887 17.6925 15.6738 17.539 16.0027ZM21.6501 19.8836C21.9352 19.5327 22.3079 19.2916 22.7684 19.16C23.6235 18.9627 24.3141 19.0394 24.8404 19.3902C25.3666 19.741 25.6845 20.3001 25.7941 21.0676C25.9257 21.7034 25.9586 22.3831 25.8928 23.1067C25.849 23.8083 25.7832 24.5099 25.6955 25.2116C25.5639 25.7597 25.3118 26.1215 24.939 26.2969C24.654 26.4504 24.2922 26.56 23.8537 26.6258C23.4152 26.6696 22.9876 26.6477 22.571 26.56C22.1764 26.4504 21.8365 26.264 21.5515 26.0009C21.2664 25.7159 21.1349 25.3212 21.1568 24.8169C21.2007 24.0495 21.2226 23.3259 21.2226 22.6462C21.2226 21.9446 21.2664 21.243 21.3541 20.5413C21.4199 20.1905 21.5186 19.9713 21.6501 19.8836ZM32.2812 16.0027C32.2154 16.2439 32.1168 16.5727 31.9852 16.9893C31.8537 17.384 31.7769 17.7019 31.755 17.9431C31.6892 18.3597 31.6454 18.7653 31.6234 19.16C31.6015 19.5327 31.5905 19.9164 31.5905 20.3111C31.6563 21.0347 31.6673 21.835 31.6234 22.712C31.6015 23.589 31.6125 24.4661 31.6563 25.3431C31.7002 26.1982 31.8317 27.0204 32.051 27.8098C32.2703 28.5991 32.6759 29.2569 33.2679 29.7831C34.0353 30.5505 34.9781 31.0329 36.0963 31.2302C36.7103 31.2302 37.39 31.2521 38.1354 31.296C38.8809 31.3618 39.6045 31.3618 40.3061 31.296C41.0077 31.2521 41.6546 31.1206 42.2466 30.9013C42.8605 30.6821 43.3538 30.3093 43.7265 29.7831C43.9458 29.5639 44.1103 29.1582 44.2199 28.5662C44.3514 27.9742 44.4501 27.3055 44.5159 26.56C44.6036 25.8145 44.6584 25.0361 44.6803 24.2249C44.7242 23.4136 44.7571 22.6901 44.779 22.0542C44.7571 21.3307 44.7351 20.629 44.7132 19.9493C44.6913 19.2477 44.6365 18.6119 44.5488 18.0418C44.4611 17.4498 44.3295 16.9345 44.1541 16.496C43.9787 16.0575 43.7375 15.7396 43.4305 15.5422C42.9701 15.1037 42.422 14.7748 41.7861 14.5556C41.1503 14.3144 40.4815 14.1719 39.7799 14.128C39.3194 14.0841 38.8809 14.0841 38.4643 14.128C38.0697 14.1499 37.6531 14.139 37.2145 14.0951C36.6883 14.0951 36.1621 14.128 35.6359 14.1938C35.1316 14.2596 34.6492 14.3801 34.1888 14.5556C33.7503 14.709 33.3556 14.9064 33.0048 15.1476C32.6759 15.3887 32.4347 15.6738 32.2812 16.0027ZM36.3923 19.8836C36.6774 19.5327 37.0501 19.2916 37.5105 19.16C38.3657 18.9627 39.0563 19.0394 39.5826 19.3902C40.1088 19.741 40.4267 20.3001 40.5363 21.0676C40.6679 21.7034 40.7008 22.3831 40.635 23.1067C40.5911 23.8083 40.5254 24.5099 40.4377 25.2116C40.3061 25.7597 40.054 26.1215 39.6812 26.2969C39.3962 26.4504 39.0344 26.56 38.5959 26.6258C38.1574 26.6696 37.7298 26.6477 37.3132 26.56C36.9185 26.4504 36.5787 26.264 36.2937 26.0009C36.0086 25.7159 35.8771 25.3212 35.899 24.8169C35.9428 24.0495 35.9648 23.3259 35.9648 22.6462C35.9648 21.9446 36.0086 21.243 36.0963 20.5413C36.1621 20.1905 36.2608 19.9713 36.3923 19.8836ZM46.8261 7.08978C46.6287 9.08504 46.5301 11.0803 46.5301 13.0756C46.552 15.0708 46.5958 17.0661 46.6616 19.0613C46.7274 21.0566 46.7713 23.0519 46.7932 25.0471C46.837 27.0424 46.7822 29.0267 46.6287 31C46.7822 30.9561 47.0892 30.9452 47.5496 30.9671C48.0101 30.989 48.4924 31 48.9967 31C49.523 31.0219 50.0053 31.0219 50.4438 31C50.8824 31 51.1564 30.9342 51.2661 30.8027C51.2222 29.9256 51.1893 28.8622 51.1674 27.6124C51.1455 26.3407 51.1345 24.9813 51.1345 23.5342C51.1345 22.0871 51.1345 20.5852 51.1345 19.0284C51.1564 17.4717 51.1784 15.9698 51.2003 14.5227C51.2222 13.0756 51.2441 11.7161 51.2661 10.4444C51.288 9.17274 51.299 8.08741 51.299 7.18844L46.8261 7.08978ZM74.1321 26.5271C72.6411 26.571 71.194 26.56 69.7907 26.4942C68.3875 26.4065 66.9623 26.3627 65.5152 26.3627L65.4823 26.3298C65.4384 25.8036 65.3946 25.1458 65.3507 24.3564C65.3288 23.5671 65.3727 22.8545 65.4823 22.2187C65.5919 22.131 65.8002 22.0761 66.1072 22.0542C66.4141 22.0323 66.754 22.0213 67.1267 22.0213C67.5214 22.0213 67.927 22.0213 68.3436 22.0213C68.7602 21.9994 69.133 21.9446 69.4618 21.8569C69.4399 21.0456 69.4509 20.2673 69.4947 19.5218C69.5386 18.7763 69.5057 18.0308 69.3961 17.2853V17.2524C68.7164 17.2305 68.0367 17.2196 67.357 17.2196C66.6773 17.2196 66.0085 17.1976 65.3507 17.1538L65.3178 17.1209C65.1644 16.5289 65.1205 15.904 65.1863 15.2462C65.274 14.5665 65.3069 13.9087 65.285 13.2729L65.3178 13.24H65.4165C66.1401 13.1742 66.8636 13.1413 67.5872 13.1413C68.3107 13.1413 69.0343 13.1523 69.7578 13.1742C70.4814 13.1742 71.194 13.1633 71.8956 13.1413C72.6192 13.0975 73.3318 12.9988 74.0334 12.8453V12.8124C74.0334 12.045 74.0553 11.2667 74.0992 10.4773C74.165 9.688 74.143 8.90963 74.0334 8.14222C74.0334 8.12029 73.8141 8.09837 73.3756 8.07644C72.9371 8.05452 72.3561 8.04355 71.6325 8.04355C70.909 8.04355 70.0758 8.05452 69.133 8.07644C68.1901 8.09837 67.2144 8.12029 66.2058 8.14222C65.1973 8.16415 64.1887 8.19704 63.1801 8.24089C62.1934 8.26281 61.2725 8.2957 60.4174 8.33955C60.3078 10.2252 60.242 12.0999 60.2201 13.9636C60.1981 15.8273 60.1981 17.691 60.2201 19.5547C60.242 21.4184 60.2749 23.293 60.3187 25.1787C60.3626 27.0424 60.3845 28.928 60.3845 30.8356C62.5113 31.011 64.7258 31.0658 67.0281 31C69.3522 30.9123 71.6325 30.8794 73.869 30.9013C74.0444 30.2436 74.143 29.5419 74.165 28.7964C74.1869 28.029 74.1759 27.2945 74.1321 26.5929V26.5271ZM88.7915 14.6213C88.0899 14.5775 87.465 14.5446 86.9169 14.5227C86.3906 14.5007 85.9412 14.4788 85.5684 14.4569C85.5026 14.4569 85.382 14.4569 85.2066 14.4569C85.0312 14.4569 84.8558 14.4569 84.6804 14.4569C84.505 14.435 84.3406 14.435 84.1871 14.4569C84.0555 14.4569 83.9897 14.4679 83.9897 14.4898C83.9897 14.7529 83.9569 15.016 83.8911 15.2791C83.8472 15.5203 83.8363 15.8163 83.8582 16.1671C83.7047 15.7944 83.5183 15.5093 83.2991 15.312C83.0798 15.0927 82.8277 14.9393 82.5426 14.8516C82.2576 14.7419 81.9397 14.6871 81.5889 14.6871C81.26 14.6652 80.8982 14.6542 80.5035 14.6542C79.7361 14.6761 79.0126 14.8844 78.3329 15.2791C77.6532 15.6519 77.0612 16.1781 76.5569 16.8578C76.0745 17.5156 75.6908 18.3049 75.4057 19.2258C75.1207 20.1467 74.9782 21.1553 74.9782 22.2516C74.9782 23.1286 75.0659 24.0824 75.2413 25.1129C75.4386 26.1434 75.7346 27.0972 76.1293 27.9742C76.524 28.8513 77.0173 29.5858 77.6093 30.1778C78.2232 30.7698 78.9577 31.0658 79.8129 31.0658C80.5803 31.0658 81.3586 30.8794 82.148 30.5067C82.9592 30.1339 83.628 29.6844 84.1542 29.1582C84.1542 29.3775 84.1323 29.5639 84.0884 29.7173C84.0446 29.8708 84.0226 30.0681 84.0226 30.3093C84.0226 30.4847 84.0446 30.6382 84.0884 30.7698C84.1542 30.9013 84.2638 30.989 84.4173 31.0329C84.6585 31.0329 84.8887 31.0219 85.108 31C85.3492 30.9561 85.5903 30.9342 85.8315 30.9342C86.1823 30.9342 86.5332 30.9561 86.884 31C87.2567 31.0219 87.6185 31.0329 87.9693 31.0329H88.364C88.6271 30.989 88.7586 30.8246 88.7586 30.5396C88.7806 30.2545 88.7915 29.9695 88.7915 29.6844C88.945 27.3384 88.9779 25.0252 88.8902 22.7449C88.8025 20.4427 88.7915 18.1076 88.8573 15.7396V15.4107C88.8573 15.2791 88.8463 15.1476 88.8244 15.016C88.8244 14.8844 88.8135 14.7529 88.7915 14.6213ZM79.2209 21.1662C79.3305 20.6181 79.6375 20.1357 80.1417 19.7191C80.668 19.2806 81.3806 19.0613 82.2795 19.0613C82.74 19.0613 83.0798 19.0942 83.2991 19.16C83.5403 19.2258 83.7047 19.3793 83.7924 19.6204C83.902 19.8616 83.9569 20.2124 83.9569 20.6729C83.9788 21.1114 83.9897 21.7144 83.9897 22.4818C83.9897 23.0957 83.9788 23.6548 83.9569 24.1591C83.9569 24.6415 83.8911 25.0581 83.7595 25.4089C83.6499 25.7378 83.4526 26.0009 83.1675 26.1982C82.9044 26.3736 82.4988 26.4613 81.9506 26.4613C81.0297 26.4613 80.3062 26.1215 79.78 25.4418C79.2757 24.7401 79.0235 23.896 79.0235 22.9093C79.0235 22.6243 79.0345 22.3393 79.0564 22.0542C79.0783 21.7473 79.1332 21.4513 79.2209 21.1662ZM104.334 19.6204C104.334 18.4364 104.115 17.373 103.677 16.4302C103.238 15.4655 102.504 14.7639 101.473 14.3253C100.903 14.1938 100.278 14.0951 99.5983 14.0293C98.9186 13.9416 98.2389 13.8978 97.5592 13.8978C96.8795 13.8978 96.2327 13.9307 95.6188 13.9964C95.0268 14.0622 94.5225 14.1499 94.1059 14.2596C93.0315 14.5446 92.1983 15.0927 91.6063 15.904C91.0363 16.7153 90.7293 17.6033 90.6855 18.568C90.6635 19.5108 90.9266 20.4317 91.4748 21.3307C92.0449 22.2077 92.9438 22.8545 94.1717 23.2711C94.7856 23.5342 95.4105 23.7206 96.0463 23.8302C96.6822 23.9399 97.2523 24.0714 97.7566 24.2249C98.2609 24.3564 98.6665 24.5538 98.9735 24.8169C99.2804 25.08 99.401 25.4747 99.3352 26.0009C99.3572 26.6367 99.1598 27.0753 98.7432 27.3164C98.3266 27.5576 97.8662 27.6563 97.3619 27.6124C96.8576 27.5467 96.3752 27.3603 95.9148 27.0533C95.4763 26.7244 95.246 26.3079 95.2241 25.8036C94.5444 25.8036 93.7441 25.7926 92.8232 25.7707C91.9023 25.7268 91.0801 25.7487 90.3566 25.8364V25.9022V26.0009C90.3566 26.8779 90.532 27.6673 90.8828 28.3689C91.2555 29.0705 91.7598 29.6625 92.3957 30.1449C93.0535 30.6273 93.8318 30.989 94.7308 31.2302C95.6298 31.4714 96.6383 31.5701 97.7566 31.5262C99.0283 31.5481 100.201 31.3289 101.276 30.8684C102.35 30.408 103.139 29.6406 103.644 28.5662C104.06 27.3603 104.214 26.3517 104.104 25.5404C103.994 24.7073 103.698 23.896 103.216 23.1067C102.712 22.4489 101.922 21.9775 100.848 21.6924C99.7738 21.3855 98.6226 21.1443 97.3948 20.9689C96.8905 20.7935 96.5068 20.5304 96.2437 20.1796C95.9806 19.8287 95.849 19.4779 95.849 19.1271C95.849 18.7763 95.9696 18.4584 96.2108 18.1733C96.4739 17.8664 96.8576 17.669 97.3619 17.5813C97.6469 17.5594 97.932 17.6033 98.217 17.7129C98.524 17.8006 98.7871 17.9431 99.0063 18.1404C99.2475 18.3378 99.4229 18.568 99.5326 18.8311C99.6641 19.0942 99.697 19.3573 99.6312 19.6204C100.377 19.7739 101.166 19.8397 101.999 19.8178C102.854 19.7959 103.633 19.7301 104.334 19.6204ZM111.872 8.504C111.5 8.54785 111.127 8.55881 110.754 8.53689C110.381 8.51496 110.009 8.49304 109.636 8.47111C109.263 8.42726 108.901 8.39437 108.551 8.37244C108.222 8.35052 107.915 8.36148 107.63 8.40533C107.586 8.82192 107.553 9.29333 107.531 9.81955C107.531 10.3458 107.531 10.8939 107.531 11.464C107.531 12.0341 107.542 12.6041 107.564 13.1742C107.586 13.7224 107.597 14.2376 107.597 14.72C107.246 14.72 106.873 14.72 106.479 14.72C106.106 14.72 105.7 14.709 105.262 14.6871L105.163 18.6996C105.623 18.6996 106.04 18.6996 106.413 18.6996C106.807 18.6996 107.18 18.6886 107.531 18.6667C107.509 20.2673 107.52 21.824 107.564 23.3369C107.608 24.8279 107.772 26.4175 108.057 28.1058C108.342 28.7855 108.803 29.3227 109.439 29.7173C110.096 30.112 110.842 30.408 111.675 30.6053C112.508 30.8027 113.396 30.9342 114.339 31C115.282 31.0439 116.192 31.0439 117.069 31C117.178 30.6711 117.244 30.3093 117.266 29.9147C117.31 29.52 117.321 29.1253 117.299 28.7307C117.277 28.336 117.244 27.9523 117.2 27.5796C117.156 27.2068 117.113 26.867 117.069 26.56C116.696 26.5819 116.258 26.5819 115.753 26.56C115.271 26.5381 114.788 26.4833 114.306 26.3956C113.824 26.2859 113.374 26.1434 112.958 25.968C112.541 25.7926 112.223 25.5514 112.004 25.2444C111.982 24.2578 111.971 23.2053 111.971 22.0871C111.971 20.947 111.971 19.7849 111.971 18.6009H117.069C117.025 18.3159 117.014 17.976 117.036 17.5813C117.08 17.1647 117.113 16.7591 117.135 16.3644C117.156 15.9698 117.156 15.608 117.135 15.2791C117.113 14.9283 117.025 14.6652 116.871 14.4898C115.753 14.5556 114.81 14.6104 114.043 14.6542C113.298 14.6981 112.585 14.731 111.905 14.7529C111.905 14.424 111.894 14.1061 111.872 13.7991C111.872 13.4921 111.872 13.1961 111.872 12.9111V8.504ZM118.704 24.3564C118.814 24.3564 119.241 24.3674 119.987 24.3893C120.732 24.4113 121.631 24.4332 122.684 24.4551C123.736 24.4551 124.865 24.4661 126.071 24.488C127.277 24.5099 128.406 24.5319 129.459 24.5538C130.511 24.5757 131.41 24.5867 132.156 24.5867C132.901 24.5867 133.329 24.5867 133.438 24.5867H133.471C133.318 23.6877 133.263 22.7778 133.307 21.8569C133.372 20.936 133.394 20.0151 133.372 19.0942C133.109 19.0942 132.572 19.0942 131.761 19.0942C130.95 19.0942 130.007 19.0942 128.932 19.0942C127.88 19.0942 126.762 19.0942 125.578 19.0942C124.394 19.0942 123.297 19.0942 122.289 19.0942C121.302 19.0942 120.48 19.0942 119.822 19.0942C119.164 19.0942 118.825 19.0942 118.803 19.0942C118.803 19.16 118.792 19.4231 118.77 19.8836C118.77 20.344 118.759 20.8702 118.737 21.4622C118.737 22.0323 118.726 22.5914 118.704 23.1396C118.704 23.6877 118.704 24.0933 118.704 24.3564ZM149.307 8.07644C148.583 8.01067 147.848 7.97778 147.103 7.97778C146.708 7.97778 146.314 7.98874 145.919 8.01066C145.524 8.03259 145.141 8.08741 144.768 8.17511V8.208C144.68 9.17274 144.614 10.269 144.571 11.4969C144.549 12.7028 144.516 13.9416 144.472 15.2133C144.45 16.485 144.417 17.7348 144.373 18.9627C144.329 20.1686 144.264 21.243 144.176 22.1858C144.044 21.8569 143.891 21.3526 143.715 20.6729C143.562 19.9932 143.398 19.3025 143.222 18.6009C143.069 17.8993 142.904 17.2744 142.729 16.7262C142.575 16.1561 142.455 15.8382 142.367 15.7724C142.345 15.7944 142.334 15.8163 142.334 15.8382C142.334 15.8601 142.323 15.893 142.301 15.9369C142.06 16.9236 141.819 17.8993 141.578 18.864C141.358 19.8068 141.106 20.7716 140.821 21.7582C140.58 20.8154 140.427 19.752 140.361 18.568C140.295 17.384 140.262 16.1781 140.262 14.9502C140.262 13.7224 140.262 12.5055 140.262 11.2996C140.262 10.0936 140.218 9.00829 140.131 8.04355C139.736 8.02163 139.319 7.9997 138.881 7.97778C138.442 7.95585 138.004 7.94489 137.565 7.94489C137.192 7.94489 136.82 7.96681 136.447 8.01066C136.096 8.03259 135.756 8.06548 135.427 8.10933V8.14222C135.493 11.9354 135.778 15.7286 136.283 19.5218C136.787 23.315 137.302 27.0862 137.828 30.8356H137.861C138.344 30.9013 138.76 30.9342 139.111 30.9342C139.418 30.9342 139.692 30.9233 139.933 30.9013C140.174 30.8575 140.438 30.8136 140.723 30.7698C140.898 30.4847 141.051 30.0791 141.183 29.5529C141.315 29.0267 141.446 28.4895 141.578 27.9413C141.709 27.3713 141.841 26.845 141.972 26.3627C142.126 25.8584 142.301 25.5076 142.499 25.3102H142.531C142.729 25.6172 142.904 26.0338 143.058 26.56C143.211 27.0862 143.365 27.6344 143.518 28.2044C143.672 28.7526 143.814 29.2788 143.946 29.7831C144.099 30.2655 144.275 30.6382 144.472 30.9013H144.867H146.051C146.27 30.9013 146.467 30.9013 146.643 30.9013C146.84 30.9013 147.015 30.8794 147.169 30.8356C147.476 27.0204 147.827 23.2273 148.221 19.456C148.638 15.6847 149.011 11.9025 149.339 8.10933L149.307 8.07644ZM154.737 22.7449C154.956 22.7887 155.307 22.8216 155.789 22.8436C156.271 22.8655 156.809 22.8764 157.401 22.8764C158.015 22.8764 158.65 22.8655 159.308 22.8436C159.966 22.8216 160.58 22.7887 161.15 22.7449C161.742 22.701 162.246 22.6572 162.663 22.6133C163.101 22.5695 163.397 22.5256 163.551 22.4818C163.617 21.5609 163.617 20.651 163.551 19.752C163.485 18.853 163.288 18.0308 162.959 17.2853C162.652 16.5399 162.191 15.904 161.577 15.3778C160.964 14.8516 160.152 14.5007 159.144 14.3253C158.354 14.128 157.543 14.0403 156.71 14.0622C155.877 14.0841 155.087 14.2157 154.342 14.4569C153.596 14.6761 152.928 15.016 152.336 15.4764C151.744 15.915 151.305 16.4521 151.02 17.088C150.757 17.8116 150.582 18.557 150.494 19.3244C150.428 20.0699 150.362 20.8483 150.297 21.6596C150.253 22.5585 150.275 23.4575 150.362 24.3564C150.45 25.2554 150.615 26.1105 150.856 26.9218C151.097 27.7111 151.415 28.4456 151.809 29.1253C152.204 29.7831 152.697 30.3203 153.289 30.7369C153.816 31.0439 154.386 31.2412 155 31.3289C155.614 31.3289 156.282 31.3508 157.006 31.3947C157.751 31.4385 158.475 31.4385 159.177 31.3947C159.878 31.3508 160.525 31.2193 161.117 31C161.709 30.7807 162.191 30.408 162.564 29.8818C162.718 29.7502 162.838 29.52 162.926 29.1911C163.036 28.8403 163.123 28.4347 163.189 27.9742C163.255 27.4919 163.31 26.9766 163.353 26.4284C163.397 25.8803 163.441 25.3212 163.485 24.7511C163.244 24.6853 162.937 24.6524 162.564 24.6524C162.191 24.6305 161.797 24.6305 161.38 24.6524C160.985 24.6744 160.602 24.6963 160.229 24.7182C159.856 24.7182 159.56 24.7073 159.341 24.6853C159.385 25.5843 159.242 26.264 158.913 26.7244C158.607 27.163 158.223 27.4261 157.762 27.5138C157.302 27.6015 156.831 27.5247 156.348 27.2836C155.866 27.0424 155.493 26.6696 155.23 26.1653C154.989 25.7707 154.846 25.365 154.802 24.9484C154.78 24.5319 154.759 23.9947 154.737 23.3369V22.7449ZM158.716 17.6471C159.111 17.8444 159.418 18.1404 159.637 18.5351C159.878 18.9298 159.999 19.3464 159.999 19.7849C159.999 19.9603 159.999 20.0809 159.999 20.1467C159.999 20.1905 159.933 20.2234 159.801 20.2453C159.692 20.2453 159.495 20.2344 159.209 20.2124C158.924 20.1905 158.497 20.1796 157.927 20.1796C157.094 20.1796 156.458 20.1905 156.019 20.2124C155.603 20.2124 155.296 20.2015 155.098 20.1796C154.901 20.1357 154.791 20.0699 154.769 19.9822C154.769 19.8726 154.791 19.6972 154.835 19.456C154.879 19.171 154.945 18.8969 155.033 18.6338C155.142 18.3707 155.296 18.1404 155.493 17.9431C155.69 17.7458 155.953 17.5923 156.282 17.4827C156.611 17.373 157.039 17.3182 157.565 17.3182C157.806 17.3182 158.015 17.3511 158.19 17.4169C158.365 17.4607 158.541 17.5375 158.716 17.6471ZM178.559 19.6204C178.559 18.4364 178.34 17.373 177.901 16.4302C177.463 15.4655 176.728 14.7639 175.698 14.3253C175.128 14.1938 174.503 14.0951 173.823 14.0293C173.143 13.9416 172.464 13.8978 171.784 13.8978C171.104 13.8978 170.458 13.9307 169.844 13.9964C169.252 14.0622 168.747 14.1499 168.331 14.2596C167.256 14.5446 166.423 15.0927 165.831 15.904C165.261 16.7153 164.954 17.6033 164.91 18.568C164.888 19.5108 165.151 20.4317 165.7 21.3307C166.27 22.2077 167.169 22.8545 168.397 23.2711C169.01 23.5342 169.635 23.7206 170.271 23.8302C170.907 23.9399 171.477 24.0714 171.981 24.2249C172.486 24.3564 172.891 24.5538 173.198 24.8169C173.505 25.08 173.626 25.4747 173.56 26.0009C173.582 26.6367 173.385 27.0753 172.968 27.3164C172.551 27.5576 172.091 27.6563 171.587 27.6124C171.082 27.5467 170.6 27.3603 170.14 27.0533C169.701 26.7244 169.471 26.3079 169.449 25.8036C168.769 25.8036 167.969 25.7926 167.048 25.7707C166.127 25.7268 165.305 25.7487 164.581 25.8364V25.9022V26.0009C164.581 26.8779 164.757 27.6673 165.108 28.3689C165.48 29.0705 165.985 29.6625 166.621 30.1449C167.278 30.6273 168.057 30.989 168.956 31.2302C169.855 31.4714 170.863 31.5701 171.981 31.5262C173.253 31.5481 174.426 31.3289 175.501 30.8684C176.575 30.408 177.364 29.6406 177.869 28.5662C178.285 27.3603 178.439 26.3517 178.329 25.5404C178.219 24.7073 177.923 23.896 177.441 23.1067C176.937 22.4489 176.147 21.9775 175.073 21.6924C173.999 21.3855 172.847 21.1443 171.62 20.9689C171.115 20.7935 170.732 20.5304 170.469 20.1796C170.205 19.8287 170.074 19.4779 170.074 19.1271C170.074 18.7763 170.194 18.4584 170.436 18.1733C170.699 17.8664 171.082 17.669 171.587 17.5813C171.872 17.5594 172.157 17.6033 172.442 17.7129C172.749 17.8006 173.012 17.9431 173.231 18.1404C173.472 18.3378 173.648 18.568 173.757 18.8311C173.889 19.0942 173.922 19.3573 173.856 19.6204C174.602 19.7739 175.391 19.8397 176.224 19.8178C177.079 19.7959 177.858 19.7301 178.559 19.6204ZM186.097 8.504C185.724 8.54785 185.352 8.55881 184.979 8.53689C184.606 8.51496 184.233 8.49304 183.861 8.47111C183.488 8.42726 183.126 8.39437 182.775 8.37244C182.446 8.35052 182.14 8.36148 181.854 8.40533C181.811 8.82192 181.778 9.29333 181.756 9.81955C181.756 10.3458 181.756 10.8939 181.756 11.464C181.756 12.0341 181.767 12.6041 181.789 13.1742C181.811 13.7224 181.822 14.2376 181.822 14.72C181.471 14.72 181.098 14.72 180.703 14.72C180.331 14.72 179.925 14.709 179.486 14.6871L179.388 18.6996C179.848 18.6996 180.265 18.6996 180.638 18.6996C181.032 18.6996 181.405 18.6886 181.756 18.6667C181.734 20.2673 181.745 21.824 181.789 23.3369C181.833 24.8279 181.997 26.4175 182.282 28.1058C182.567 28.7855 183.028 29.3227 183.663 29.7173C184.321 30.112 185.067 30.408 185.9 30.6053C186.733 30.8027 187.621 30.9342 188.564 31C189.507 31.0439 190.417 31.0439 191.294 31C191.403 30.6711 191.469 30.3093 191.491 29.9147C191.535 29.52 191.546 29.1253 191.524 28.7307C191.502 28.336 191.469 27.9523 191.425 27.5796C191.381 27.2068 191.337 26.867 191.294 26.56C190.921 26.5819 190.482 26.5819 189.978 26.56C189.496 26.5381 189.013 26.4833 188.531 26.3956C188.049 26.2859 187.599 26.1434 187.182 25.968C186.766 25.7926 186.448 25.5514 186.229 25.2444C186.207 24.2578 186.196 23.2053 186.196 22.0871C186.196 20.947 186.196 19.7849 186.196 18.6009H191.294C191.25 18.3159 191.239 17.976 191.261 17.5813C191.305 17.1647 191.337 16.7591 191.359 16.3644C191.381 15.9698 191.381 15.608 191.359 15.2791C191.337 14.9283 191.25 14.6652 191.096 14.4898C189.978 14.5556 189.035 14.6104 188.268 14.6542C187.522 14.6981 186.81 14.731 186.13 14.7529C186.13 14.424 186.119 14.1061 186.097 13.7991C186.097 13.4921 186.097 13.1961 186.097 12.9111V8.504Z" fill="#345598"/>
<path d="M19.7383 35.4102C19.3289 35.3829 18.865 35.3692 18.3464 35.3692C17.8552 35.3419 17.3503 35.3556 16.8318 35.4102C16.3133 35.4374 15.8084 35.492 15.3172 35.5739C14.8532 35.6558 14.4575 35.7513 14.13 35.8605C14.2119 37.8254 14.2392 39.6266 14.2119 41.264C14.2119 42.9015 14.13 44.6617 13.9663 46.5448H13.9253C13.2431 46.5994 12.5062 46.6676 11.7148 46.7495C10.9233 46.8041 10.1865 46.7495 9.50422 46.5857H9.46328C9.13579 44.8391 8.97205 43.0789 8.97205 41.305C8.97205 39.5311 8.84924 37.7026 8.60362 35.8195C8.22155 35.7104 7.81219 35.6558 7.37553 35.6558C6.93888 35.6558 6.48858 35.6694 6.02464 35.6967C5.58799 35.724 5.13769 35.7513 4.67375 35.7786C4.23709 35.8059 3.81409 35.7786 3.40473 35.6967H3.32285H3.28192V35.7376C3.25463 37.1295 3.22734 38.6987 3.20004 40.4453C3.20004 42.1646 3.21369 43.9658 3.24098 45.8489C3.26827 47.7047 3.29556 49.5604 3.32285 51.4162C3.37743 53.272 3.43202 55.0322 3.4866 56.697C3.54118 58.3344 3.59576 59.8218 3.65034 61.159C3.73222 62.469 3.80044 63.506 3.85502 64.2702C4.10064 64.1337 4.45542 64.0791 4.91936 64.1064C5.4106 64.1337 5.92912 64.1746 6.47494 64.2292C7.02075 64.2838 7.56657 64.3111 8.11239 64.3111C8.6582 64.3111 9.09485 64.2156 9.42234 64.0245C9.5588 63.1512 9.62702 62.2779 9.62702 61.4046C9.65432 60.504 9.65432 59.5898 9.62702 58.6619C9.59973 57.734 9.57244 56.8061 9.54515 55.8782C9.54515 54.9504 9.58609 54.0088 9.66796 53.0536C10.4594 52.8626 11.2508 52.7671 12.0423 52.7671C12.8337 52.7671 13.6251 52.8353 14.4166 52.9718L14.4575 53.0127C14.5667 53.886 14.6349 54.8003 14.6622 55.7554C14.6895 56.7106 14.7031 57.6658 14.7031 58.621C14.7304 59.5761 14.7577 60.545 14.785 61.5274C14.8396 62.4826 14.9351 63.4105 15.0715 64.3111H15.1125C15.44 64.2838 15.8357 64.2702 16.2996 64.2702C16.7909 64.2702 17.2821 64.2702 17.7733 64.2702C18.2918 64.2702 18.8104 64.2565 19.3289 64.2292C19.8747 64.2019 20.3796 64.1474 20.8435 64.0655L19.7383 35.4102ZM23.9147 45.6442C23.8328 45.9444 23.71 46.3538 23.5463 46.8723C23.3825 47.3635 23.287 47.7592 23.2597 48.0594C23.1779 48.578 23.1233 49.0828 23.096 49.5741C23.0687 50.038 23.055 50.5156 23.055 51.0068C23.1369 51.9074 23.1506 52.9035 23.096 53.9952C23.0687 55.0868 23.0823 56.1784 23.1369 57.2701C23.1915 58.3344 23.3552 59.3578 23.6282 60.3403C23.9011 61.3228 24.4059 62.1415 25.1428 62.7965C26.098 63.7516 27.2715 64.352 28.6633 64.5976C29.4274 64.5976 30.2735 64.6249 31.2013 64.6795C32.1292 64.7614 33.0298 64.7614 33.9031 64.6795C34.7764 64.6249 35.5815 64.4612 36.3184 64.1883C37.0825 63.9154 37.6966 63.4514 38.1605 62.7965C38.4334 62.5235 38.6381 62.0187 38.7745 61.2818C38.9383 60.545 39.0611 59.7126 39.143 58.7847C39.2521 57.8568 39.3204 56.888 39.3476 55.8782C39.4022 54.8685 39.4432 53.9679 39.4705 53.1765C39.4432 52.2759 39.4159 51.4026 39.3886 50.5565C39.3613 49.6832 39.2931 48.8918 39.1839 48.1822C39.0747 47.4454 38.911 46.8041 38.6927 46.2582C38.4743 45.7124 38.1741 45.3167 37.7921 45.0711C37.219 44.5253 36.5367 44.1159 35.7453 43.843C34.9538 43.5428 34.1215 43.3654 33.2482 43.3108C32.675 43.2563 32.1292 43.2563 31.6107 43.3108C31.1195 43.3381 30.6009 43.3245 30.0551 43.2699C29.4002 43.2699 28.7452 43.3108 28.0902 43.3927C27.4625 43.4746 26.8621 43.6247 26.289 43.843C25.7432 44.034 25.252 44.2797 24.8153 44.5799C24.4059 44.8801 24.1057 45.2348 23.9147 45.6442ZM29.0317 50.4747C29.3865 50.038 29.8505 49.7378 30.4236 49.5741C31.4879 49.3285 32.3476 49.424 33.0025 49.8606C33.6575 50.2973 34.0532 50.9932 34.1897 51.9484C34.3534 52.7398 34.3944 53.5858 34.3125 54.4864C34.2579 55.3597 34.176 56.233 34.0669 57.1063C33.9031 57.7886 33.5893 58.2389 33.1253 58.4572C32.7706 58.6483 32.3203 58.7847 31.7745 58.8666C31.2286 58.9212 30.6965 58.8939 30.1779 58.7847C29.6867 58.6483 29.2637 58.4163 28.9089 58.0888C28.5541 57.734 28.3904 57.2428 28.4177 56.6151C28.4723 55.6599 28.4996 54.7593 28.4996 53.9133C28.4996 53.04 28.5541 52.1667 28.6633 51.2934C28.7452 50.8567 28.868 50.5838 29.0317 50.4747ZM42.0184 34.5505C41.7728 37.034 41.65 39.5174 41.65 42.0009C41.6773 44.4843 41.7319 46.9678 41.8137 49.4513C41.8956 51.9347 41.9502 54.4182 41.9775 56.9016C42.0321 59.3851 41.9638 61.8549 41.7728 64.3111C41.9638 64.2565 42.3459 64.2429 42.919 64.2702C43.4921 64.2975 44.0925 64.3111 44.7202 64.3111C45.3752 64.3384 45.9756 64.3384 46.5214 64.3111C47.0672 64.3111 47.4083 64.2292 47.5448 64.0655C47.4902 62.9738 47.4493 61.6502 47.422 60.0947C47.3947 58.5118 47.381 56.8198 47.381 55.0186C47.381 53.2174 47.381 51.348 47.381 49.4103C47.4083 47.4727 47.4356 45.6033 47.4629 43.8021C47.4902 42.0009 47.5175 40.3089 47.5448 38.726C47.5721 37.1431 47.5857 35.7922 47.5857 34.6733L42.0184 34.5505ZM55.3249 43.7202C54.4516 43.7475 53.7011 43.7475 53.0734 43.7202C52.4457 43.6929 51.9545 43.6656 51.5997 43.6383C51.4633 43.6383 51.2586 43.6247 50.9857 43.5974C50.7401 43.5701 50.5627 43.5701 50.4535 43.5974V43.6383C50.2898 45.2485 50.2079 46.9132 50.2079 48.6325C50.2079 50.3246 50.2352 52.0439 50.2898 53.7905C50.3443 55.5371 50.3716 57.2974 50.3716 59.0713C50.3989 60.8452 50.3443 62.5918 50.2079 64.3111C50.3989 64.2565 50.781 64.2429 51.3541 64.2702C51.9272 64.2975 52.5276 64.3111 53.1553 64.3111C53.8103 64.3384 54.4107 64.3384 54.9565 64.3111C55.5023 64.3111 55.8434 64.2292 55.9799 64.0655C55.7888 60.7633 55.7343 57.3929 55.8161 53.9542C55.9253 50.5156 55.9935 47.1452 56.0208 43.843V43.7202H55.3249ZM50.2898 34.7961C50.2625 36.0515 50.2761 37.1158 50.3307 37.9891C50.4126 38.8352 50.4535 39.6539 50.4535 40.4453C50.972 40.418 51.5315 40.4317 52.1319 40.4862C52.7323 40.5135 53.2917 40.5408 53.8103 40.5681C54.3561 40.5681 54.82 40.5408 55.2021 40.4862C55.6115 40.4317 55.8707 40.3225 55.9799 40.1588C55.9799 39.7494 55.9662 39.2854 55.9389 38.7669C55.9389 38.2211 55.9253 37.7026 55.898 37.2113C55.898 36.6928 55.8844 36.2289 55.8571 35.8195C55.8571 35.3829 55.8571 35.0827 55.8571 34.9189L50.2898 34.7961ZM69.4901 35.9833C69.4628 36.5291 69.4355 36.9521 69.4082 37.2523C69.4082 37.5252 69.3946 37.7845 69.3673 38.0301C69.3673 38.2484 69.3536 38.494 69.3264 38.7669C69.3264 39.0125 69.3264 39.381 69.3264 39.8722C69.3264 40.3361 69.3264 40.9638 69.3264 41.7553C69.3264 42.5467 69.34 43.5837 69.3673 44.8664C69.3127 44.6208 69.0125 44.4025 68.4667 44.2114C67.9209 44.0204 67.2523 43.8976 66.4608 43.843C65.6694 43.7611 64.8234 43.7611 63.9228 43.843C63.0495 43.8976 62.2444 44.0613 61.5075 44.3342C60.9072 44.5526 60.3886 44.9346 59.952 45.4805C59.5426 45.999 59.2015 46.6403 58.9286 47.4045C58.683 48.1413 58.4919 48.96 58.3555 49.8606C58.2463 50.7612 58.1917 51.6891 58.1917 52.6443C58.219 54.0088 58.3009 55.3597 58.4373 56.697C58.6011 58.0342 58.9013 59.2487 59.3379 60.3403C59.8019 61.4046 60.4841 62.2916 61.3847 63.0011C62.2853 63.6834 63.5134 64.0791 65.069 64.1883C65.8331 64.2975 66.5563 64.2429 67.2386 64.0245C67.9209 63.7789 68.4667 63.2468 68.8761 62.428C68.9579 62.2643 69.0262 62.2234 69.0807 62.3052C69.1626 62.3598 69.2308 62.4553 69.2854 62.5918C69.2854 62.892 69.2854 63.1239 69.2854 63.2877C69.3127 63.4514 69.3264 63.6698 69.3264 63.9427C69.3264 64.0791 69.34 64.1746 69.3673 64.2292C70.186 64.3384 71.1003 64.3657 72.11 64.3111C73.1198 64.2838 74.0477 64.2702 74.8937 64.2702C75.0028 60.3403 74.9892 56.1512 74.8527 51.7028C74.7163 47.2544 74.6481 42.7514 74.6481 38.1938V35.492C74.2114 35.4102 73.6929 35.3692 73.0925 35.3692C72.4921 35.3419 71.919 35.3419 71.3732 35.3692C70.8546 35.3692 70.4043 35.3965 70.0223 35.4511C69.6675 35.4784 69.4901 35.5057 69.4901 35.533V35.9833ZM63.145 51.4162C63.2814 50.461 63.6772 49.7378 64.3321 49.2466C65.0144 48.7554 65.915 48.5097 67.0339 48.5097C67.607 48.5097 68.0573 48.5643 68.3848 48.6735C68.7396 48.7554 68.9989 48.96 69.1626 49.2875C69.3264 49.615 69.4219 50.0926 69.4492 50.7203C69.5037 51.3207 69.531 52.1531 69.531 53.2174C69.531 54.0907 69.5037 54.8958 69.4492 55.6326C69.4219 56.3422 69.2991 56.9562 69.0807 57.4748C68.8897 57.9933 68.5895 58.4026 68.1801 58.7028C67.7981 59.003 67.2659 59.1531 66.5836 59.1531C66.0105 59.1531 65.492 59.003 65.0281 58.7028C64.5641 58.4026 64.1684 58.0069 63.8409 57.5157C63.5134 56.9972 63.2678 56.4241 63.1041 55.7964C62.9403 55.1414 62.8584 54.4728 62.8584 53.7905C62.8584 53.4084 62.8721 53.0127 62.8994 52.6034C62.9267 52.194 63.0085 51.7983 63.145 51.4162ZM94.252 43.9249C93.3787 43.8703 92.6009 43.8294 91.9186 43.8021C91.2637 43.7748 90.7042 43.7475 90.2403 43.7202C90.1584 43.7202 90.0083 43.7202 89.79 43.7202C89.5716 43.7202 89.3533 43.7202 89.135 43.7202C88.9167 43.6929 88.712 43.6929 88.5209 43.7202C88.3572 43.7202 88.2753 43.7338 88.2753 43.7611C88.2753 44.0886 88.2344 44.4161 88.1525 44.7436C88.0979 45.0438 88.0843 45.4122 88.1116 45.8489C87.9205 45.3849 87.6886 45.0302 87.4157 44.7845C87.1428 44.5116 86.8289 44.3206 86.4741 44.2114C86.1194 44.075 85.7236 44.0068 85.287 44.0068C84.8776 43.9795 84.4273 43.9658 83.9361 43.9658C82.9809 43.9931 82.0803 44.2524 81.2343 44.7436C80.3883 45.2075 79.6514 45.8625 79.0238 46.7085C78.4234 47.5273 77.9458 48.5097 77.591 49.6559C77.2362 50.8022 77.0588 52.0575 77.0588 53.4221C77.0588 54.5137 77.168 55.7009 77.3863 56.9835C77.6319 58.2662 78.0003 59.4533 78.4916 60.545C78.9828 61.6366 79.5969 62.5508 80.3337 63.2877C81.0979 64.0245 82.0121 64.393 83.0764 64.393C84.0316 64.393 85.0004 64.161 85.9829 63.6971C86.9927 63.2331 87.825 62.6736 88.48 62.0187C88.48 62.2916 88.4527 62.5235 88.3981 62.7146C88.3436 62.9056 88.3163 63.1512 88.3163 63.4514C88.3163 63.6698 88.3436 63.8608 88.3981 64.0245C88.48 64.1883 88.6165 64.2975 88.8075 64.352C89.1077 64.352 89.3942 64.3384 89.6672 64.3111C89.9674 64.2565 90.2676 64.2292 90.5678 64.2292C91.0044 64.2292 91.4411 64.2565 91.8777 64.3111C92.3417 64.3384 92.792 64.352 93.2286 64.352H93.7198C94.0473 64.2975 94.2111 64.0928 94.2111 63.738C94.2384 63.3832 94.252 63.0284 94.252 62.6736C94.443 59.7535 94.484 56.8744 94.3748 54.0361C94.2657 51.1706 94.252 48.2641 94.3339 45.3167V44.9073C94.3339 44.7436 94.3202 44.5799 94.2929 44.4161C94.2929 44.2524 94.2793 44.0886 94.252 43.9249ZM82.3396 52.0712C82.476 51.3889 82.8581 50.7885 83.4858 50.27C84.1408 49.7242 85.0277 49.4513 86.1466 49.4513C86.7198 49.4513 87.1428 49.4922 87.4157 49.5741C87.7159 49.6559 87.9205 49.847 88.0297 50.1472C88.1662 50.4474 88.2344 50.884 88.2344 51.4571C88.2617 52.003 88.2753 52.7535 88.2753 53.7086C88.2753 54.4728 88.2617 55.1687 88.2344 55.7964C88.2344 56.3968 88.1525 56.9153 87.9888 57.3519C87.8523 57.7613 87.6067 58.0888 87.2519 58.3344C86.9244 58.5527 86.4196 58.6619 85.7373 58.6619C84.5911 58.6619 83.6905 58.2389 83.0355 57.3929C82.4078 56.5196 82.094 55.4689 82.094 54.2408C82.094 53.886 82.1076 53.5312 82.1349 53.1765C82.1622 52.7944 82.2304 52.426 82.3396 52.0712ZM101.931 43.9658C101.058 43.8567 100.075 43.843 98.9837 43.9249C97.892 43.9795 96.855 43.9522 95.8725 43.843C96.7185 46.9269 97.5782 50.1199 98.4515 53.4221C99.3248 56.7243 100.048 60.0264 100.621 63.3286C100.758 64.2292 100.676 64.8842 100.375 65.2936C100.103 65.7029 99.6932 65.9622 99.1474 66.0714C98.6016 66.2078 97.9739 66.2487 97.2643 66.1942C96.5821 66.1396 95.9134 66.1123 95.2585 66.1123C95.122 66.8764 95.0674 67.7634 95.0947 68.7731C95.0947 69.8102 95.2312 70.7381 95.5041 71.5568C97.8238 71.6933 99.7751 71.5159 101.358 71.0246C102.968 70.5334 104.305 69.8102 105.37 68.855C106.461 67.9271 107.335 66.8218 107.99 65.5392C108.645 64.2565 109.177 62.9056 109.586 61.4865C110.023 60.0674 110.378 58.621 110.65 57.1473C110.951 55.6736 111.278 54.2681 111.633 52.9308C111.96 51.5117 112.288 50.0653 112.615 48.5916C112.97 47.0906 113.366 45.5214 113.803 43.8839C112.656 43.8021 111.606 43.7884 110.65 43.843C109.695 43.8976 108.754 43.9112 107.826 43.8839C107.498 44.7027 107.225 45.7807 107.007 47.1179C106.789 48.4552 106.584 49.847 106.393 51.2934C106.229 52.7398 106.052 54.1316 105.861 55.4689C105.67 56.8061 105.424 57.8841 105.124 58.7028C104.824 57.8841 104.524 56.8471 104.223 55.5917C103.923 54.309 103.637 52.9718 103.364 51.5799C103.091 50.1881 102.832 48.8236 102.586 47.4863C102.34 46.1218 102.122 44.9483 101.931 43.9658ZM141.468 44.2114C141.386 42.6559 141.031 41.3323 140.403 40.2406C139.776 39.149 138.971 38.2484 137.988 37.5388C137.033 36.802 135.928 36.2562 134.672 35.9014C133.417 35.5193 132.121 35.2737 130.783 35.1645C129.473 35.0554 128.15 35.069 126.813 35.2055C125.503 35.3419 124.288 35.5603 123.169 35.8605C123.251 38.1256 123.292 40.4999 123.292 42.9833C123.319 45.4668 123.333 47.9366 123.333 50.3928C123.333 52.849 123.333 55.2506 123.333 57.5976C123.333 59.9173 123.374 62.0733 123.456 64.0655C123.92 64.1201 124.466 64.161 125.093 64.1883C125.721 64.2156 126.349 64.2292 126.976 64.2292C127.631 64.2019 128.245 64.1746 128.818 64.1474C129.419 64.0928 129.91 64.0109 130.292 63.9017C130.319 63.9017 130.333 63.9017 130.333 63.9017C130.36 63.8744 130.388 63.8608 130.415 63.8608V63.8199C130.36 61.8276 130.319 60.2448 130.292 59.0713C130.292 57.8978 130.292 56.9699 130.292 56.2876C130.292 55.578 130.292 55.0459 130.292 54.6911C130.292 54.309 130.279 53.927 130.251 53.5449C131.561 53.7632 132.844 53.7086 134.099 53.3811C135.355 53.0264 136.501 52.4669 137.538 51.7028C138.575 50.9386 139.435 50.0107 140.117 48.9191C140.826 47.8275 141.263 46.6267 141.427 45.3167C141.454 45.153 141.468 44.9892 141.468 44.8255C141.468 44.6344 141.468 44.4434 141.468 44.2524V44.2114ZM134.304 42.4921C134.659 42.7104 134.932 42.9833 135.123 43.3108C135.341 43.6383 135.477 43.9931 135.532 44.3752C135.614 44.7573 135.6 45.1393 135.491 45.5214C135.409 45.9035 135.259 46.2446 135.041 46.5448C134.713 46.8723 134.318 47.1179 133.854 47.2816C133.417 47.4181 132.953 47.5136 132.462 47.5682C131.998 47.6228 131.52 47.6637 131.029 47.691C130.538 47.691 130.074 47.7047 129.637 47.7319H129.514C129.378 47.3226 129.282 46.8723 129.228 46.3811C129.201 45.8625 129.173 45.3304 129.146 44.7845C129.146 44.2387 129.146 43.6929 129.146 43.1471C129.173 42.6013 129.173 42.0828 129.146 41.5915C129.173 41.5642 129.214 41.5506 129.269 41.5506C130.142 41.3323 131.029 41.305 131.93 41.4687C132.83 41.6052 133.622 41.9463 134.304 42.4921ZM159.054 43.9249C158.181 43.8703 157.403 43.8294 156.721 43.8021C156.066 43.7748 155.506 43.7475 155.043 43.7202C154.961 43.7202 154.811 43.7202 154.592 43.7202C154.374 43.7202 154.156 43.7202 153.937 43.7202C153.719 43.6929 153.514 43.6929 153.323 43.7202C153.159 43.7202 153.078 43.7338 153.078 43.7611C153.078 44.0886 153.037 44.4161 152.955 44.7436C152.9 45.0438 152.887 45.4122 152.914 45.8489C152.723 45.3849 152.491 45.0302 152.218 44.7845C151.945 44.5116 151.631 44.3206 151.276 44.2114C150.922 44.075 150.526 44.0068 150.089 44.0068C149.68 43.9795 149.23 43.9658 148.738 43.9658C147.783 43.9931 146.883 44.2524 146.037 44.7436C145.191 45.2075 144.454 45.8625 143.826 46.7085C143.226 47.5273 142.748 48.5097 142.393 49.6559C142.038 50.8022 141.861 52.0575 141.861 53.4221C141.861 54.5137 141.97 55.7009 142.189 56.9835C142.434 58.2662 142.803 59.4533 143.294 60.545C143.785 61.6366 144.399 62.5508 145.136 63.2877C145.9 64.0245 146.814 64.393 147.879 64.393C148.834 64.393 149.803 64.161 150.785 63.6971C151.795 63.2331 152.627 62.6736 153.282 62.0187C153.282 62.2916 153.255 62.5235 153.2 62.7146C153.146 62.9056 153.119 63.1512 153.119 63.4514C153.119 63.6698 153.146 63.8608 153.2 64.0245C153.282 64.1883 153.419 64.2975 153.61 64.352C153.91 64.352 154.197 64.3384 154.469 64.3111C154.77 64.2565 155.07 64.2292 155.37 64.2292C155.807 64.2292 156.243 64.2565 156.68 64.3111C157.144 64.3384 157.594 64.352 158.031 64.352H158.522C158.85 64.2975 159.013 64.0928 159.013 63.738C159.041 63.3832 159.054 63.0284 159.054 62.6736C159.245 59.7535 159.286 56.8744 159.177 54.0361C159.068 51.1706 159.054 48.2641 159.136 45.3167V44.9073C159.136 44.7436 159.123 44.5799 159.095 44.4161C159.095 44.2524 159.082 44.0886 159.054 43.9249ZM147.142 52.0712C147.278 51.3889 147.66 50.7885 148.288 50.27C148.943 49.7242 149.83 49.4513 150.949 49.4513C151.522 49.4513 151.945 49.4922 152.218 49.5741C152.518 49.6559 152.723 49.847 152.832 50.1472C152.968 50.4474 153.037 50.884 153.037 51.4571C153.064 52.003 153.078 52.7535 153.078 53.7086C153.078 54.4728 153.064 55.1687 153.037 55.7964C153.037 56.3968 152.955 56.9153 152.791 57.3519C152.655 57.7613 152.409 58.0888 152.054 58.3344C151.727 58.5527 151.222 58.6619 150.54 58.6619C149.393 58.6619 148.493 58.2389 147.838 57.3929C147.21 56.5196 146.896 55.4689 146.896 54.2408C146.896 53.886 146.91 53.5312 146.937 53.1765C146.964 52.7944 147.033 52.426 147.142 52.0712ZM167.634 45.2758C167.634 45.0847 167.62 44.9483 167.593 44.8664C167.593 44.7845 167.593 44.7163 167.593 44.6617C167.593 44.5799 167.593 44.4843 167.593 44.3752C167.593 44.266 167.593 44.1023 167.593 43.8839C167.593 43.8294 167.47 43.8021 167.225 43.8021C167.006 43.7748 166.733 43.7748 166.406 43.8021C166.106 43.8294 165.805 43.8567 165.505 43.8839C165.232 43.9112 165.041 43.9249 164.932 43.9249C164.605 43.9522 164.332 43.9795 164.113 44.0068C163.895 44.0068 163.69 44.0068 163.499 44.0068C163.308 44.0068 163.104 44.0068 162.885 44.0068C162.667 43.9795 162.394 43.9522 162.067 43.9249C161.957 47.5273 161.93 51.0068 161.985 54.3636C162.067 57.7204 162.108 61.0771 162.108 64.4339C162.763 64.3793 163.322 64.3657 163.786 64.393C164.277 64.4203 164.727 64.4339 165.137 64.4339C165.546 64.4612 165.942 64.4612 166.324 64.4339C166.706 64.4066 167.129 64.3247 167.593 64.1883V64.0245C167.593 63.0148 167.579 62.0733 167.552 61.1999C167.552 60.2994 167.552 59.426 167.552 58.58C167.552 57.7067 167.538 56.8471 167.511 56.0011C167.484 55.155 167.457 54.2544 167.429 53.2993C167.402 52.5351 167.511 51.9484 167.757 51.539C168.002 51.1296 168.343 50.8294 168.78 50.6384C169.244 50.4474 169.776 50.3519 170.377 50.3519C171.004 50.3519 171.687 50.3928 172.423 50.4747C172.451 50.4747 172.628 50.502 172.956 50.5565C173.31 50.6111 173.652 50.6793 173.979 50.7612C174.115 50.8158 174.252 50.8704 174.388 50.925C174.552 50.9523 174.702 50.9932 174.839 51.0478L175.207 51.1706C175.18 50.7612 175.166 50.3246 175.166 49.8606C175.166 49.3967 175.166 48.8918 175.166 48.346C175.166 47.7729 175.166 47.1315 175.166 46.422C175.193 45.7124 175.207 44.8937 175.207 43.9658C175.207 43.9385 175.002 43.9249 174.593 43.9249C174.211 43.8976 173.733 43.8976 173.16 43.9249C172.587 43.9522 171.973 44.0204 171.318 44.1296C170.663 44.2114 170.076 44.3342 169.558 44.498C169.176 44.6344 168.78 44.7845 168.371 44.9483C167.989 45.112 167.743 45.2212 167.634 45.2758ZM182.746 34.5914C182.391 34.5369 181.982 34.5096 181.518 34.5096C181.054 34.5096 180.563 34.5232 180.044 34.5505C179.553 34.5505 179.048 34.5641 178.53 34.5914C178.038 34.5914 177.588 34.5914 177.179 34.5914C177.206 39.5584 177.165 44.4843 177.056 49.3694C176.947 54.2544 176.988 59.235 177.179 64.3111C177.588 64.3657 178.038 64.393 178.53 64.393C179.048 64.393 179.553 64.3793 180.044 64.352C180.536 64.3247 180.999 64.3111 181.436 64.3111C181.9 64.2838 182.282 64.2838 182.582 64.3111C182.692 63.7107 182.76 63.0557 182.787 62.3462C182.814 61.6093 182.828 60.8861 182.828 60.1765C182.828 59.467 182.814 58.7847 182.787 58.1297C182.76 57.4748 182.746 56.9016 182.746 56.4104C183.21 57.0108 183.619 57.6385 183.974 58.2935C184.356 58.9485 184.711 59.6171 185.039 60.2994C185.366 60.9543 185.693 61.623 186.021 62.3052C186.376 62.9875 186.758 63.6561 187.167 64.3111C187.577 64.393 188.068 64.4476 188.641 64.4748C189.241 64.5021 189.855 64.5021 190.483 64.4748C191.111 64.4476 191.711 64.4066 192.284 64.352C192.885 64.3247 193.376 64.3111 193.758 64.3111C192.721 62.2097 191.575 60.1902 190.319 58.2525C189.091 56.2876 187.863 54.309 186.635 52.3168C187.781 50.7885 188.941 49.2739 190.115 47.7729C191.288 46.2446 192.38 44.7027 193.389 43.1471C193.007 43.1198 192.516 43.1334 191.916 43.188C191.315 43.2153 190.701 43.2426 190.074 43.2699C189.473 43.2699 188.887 43.2699 188.313 43.2699C187.74 43.2426 187.276 43.1607 186.922 43.0243C186.512 43.4882 186.144 43.9795 185.816 44.498C185.516 45.0165 185.216 45.535 184.916 46.0536C184.616 46.5448 184.288 47.036 183.933 47.5273C183.606 48.0185 183.21 48.4688 182.746 48.8782C182.664 48.2505 182.637 47.4317 182.664 46.422C182.719 45.4122 182.746 44.4571 182.746 43.5565V34.5914Z" fill="#733754"/>
</svg>
